<svg version="1.1" viewBox="0.0 0.0 768.0 192.0" fill="none" stroke="none" stroke-linecap="square" stroke-miterlimit="10" xmlns:xlink="http://www.w3.org/1999/xlink" xmlns="http://www.w3.org/2000/svg"><clipPath id="p.0"><path d="m0 0l768.0 0l0 192.0l-768.0 0l0 -192.0z" clip-rule="nonzero"/></clipPath><g clip-path="url(#p.0)"><path fill="#000000" fill-opacity="0.0" d="m0 0l768.0 0l0 192.0l-768.0 0z" fill-rule="evenodd"/><path fill="#000000" fill-opacity="0.0" d="m28.8 19.2l259.21262 0l0 115.2126l-259.21262 0z" fill-rule="evenodd"/><path fill="#2979ff" d="m65.19748 111.46629l0 -62.20312l12.953125 0l0 62.20312l-12.953125 0zm-19.203129 -56.45312l0 -12.28125l51.35938 0l0 12.28125l-51.35938 0zm75.5551 56.45312l0 -62.20312l12.953125 0l0 62.20312l-12.953125 0zm-19.203125 -56.45312l0 -12.28125l51.359375 0l0 12.28125l-51.359375 0zm61.726974 56.45312l0 -68.734375l43.578125 0l0 12.28125l-30.625 0l0 56.45312l-12.953125 0zm7.203125 -27.453125l0 -12.296875l33.3125 0l0 12.296875l-33.3125 0zm47.804855 27.453125l0 -68.734375l26.875 0q5.953125 0 10.70311 2.453125q4.75 2.4375 7.53125 6.46875q2.796875 4.03125 2.796875 9.03125q0 5.374996 -2.640625 9.124996q-2.640625 3.734375 -6.578125 5.65625l0 0.765625q5.28125 1.828125 8.484375 6.0q3.21875 4.171875 3.21875 10.125q0 5.859375 -3.03125 10.140625q-3.015625 4.265625 -8.15625 6.625q-5.1249847 2.34375 -11.35936 2.34375l-27.84375 0zm7.203125 -29.5625l0 -11.140625l18.71875 0q2.96875 0 5.03125 -1.09375q2.0625 -1.109375 3.171875 -3.03125q1.109375 -1.921875 1.109375 -4.124996q0 -2.3125 -1.0625 -4.125q-1.0625 -1.828125 -3.078125 -2.9375q-2.015625 -1.109375 -4.796875 -1.109375l-13.34375 0l0 45.312496l14.40625 0q3.265625 0 5.46875 -1.140625q2.203125 -1.15625 3.359375 -3.171875q1.1562347 -2.015625 1.1562347 -4.515625q0 -2.59375 -1.1562347 -4.609375q-1.15625 -2.015625 -3.46875 -3.15625q-2.296875 -1.15625 -5.75 -1.15625l-19.765625 0z" fill-rule="nonzero"/><path fill="#0cce6b" d="m360.0 57.6l115.212585 0l0 43.2126l-115.212585 0z" fill-rule="evenodd"/><path fill="#000000" d="m402.06842 84.22505q-1.015625 0 -1.921875 -0.375q-0.90625 -0.375 -1.59375 -1.046875q-0.6875 -0.671875 -1.09375 -1.578125q-0.390625 -0.921875 -0.390625 -1.984375q0 -1.078125 0.390625 -1.984375q0.40625 -0.90625 1.09375 -1.578125q0.6875 -0.6875 1.59375 -1.046875q0.90625 -0.375 1.921875 -0.375q1.09375 0 2.015625 0.390625q0.9375 0.375 1.5625 1.0625l-1.015625 1.0q-0.3125 -0.34375 -0.703125 -0.578125q-0.390625 -0.234375 -0.859375 -0.359375q-0.46875 -0.140625 -1.0 -0.140625q-0.703125 0 -1.34375 0.265625q-0.640625 0.25 -1.125 0.71875q-0.484375 0.46875 -0.765625 1.140625q-0.28125 0.65625 -0.28125 1.484375q0 0.828125 0.28125 1.484375q0.296875 0.65625 0.78125 1.140625q0.484375 0.46875 1.125 0.71875q0.640625 0.25 1.34375 0.25q0.65625 0 1.21875 -0.1875q0.5625 -0.1875 0.984375 -0.53125q0.4375 -0.34375 0.703125 -0.84375q0.265625 -0.5 0.328125 -1.125l-3.265625 0l0 -1.296875l4.640625 0q0.03125 0.15625 0.046875 0.375q0.03125 0.203125 0.03125 0.390625l0 0l0 0l0 0q0 1.03125 -0.359375 1.890625q-0.34375 0.84375 -0.96875 1.453125q-0.625 0.609375 -1.484375 0.9375q-0.859375 0.328125 -1.890625 0.328125zm10.575592 0q-1.0625 0 -1.96875 -0.390625q-0.90625 -0.390625 -1.578125 -1.078125q-0.65625 -0.6875 -1.03125 -1.578125q-0.375 -0.90625 -0.375 -1.9375q0 -1.046875 0.375 -1.9375q0.375 -0.90625 1.03125 -1.59375q0.671875 -0.6875 1.578125 -1.0625q0.90625 -0.390625 1.96875 -0.390625q1.0625 0 1.953125 0.390625q0.890625 0.375 1.5625 1.0625q0.6875 0.6875 1.046875 1.59375q0.359375 0.890625 0.359375 1.9375q0 1.03125 -0.359375 1.9375q-0.359375 0.890625 -1.046875 1.578125q-0.671875 0.6875 -1.5625 1.078125q-0.890625 0.390625 -1.953125 0.390625zm0 -1.390625q0.96875 0 1.75 -0.453125q0.78125 -0.453125 1.25 -1.265625q0.46875 -0.8125 0.46875 -1.875q0 -1.078125 -0.46875 -1.890625q-0.46875 -0.8125 -1.25 -1.265625q-0.78125 -0.453125 -1.75 -0.453125q-0.96875 0 -1.75 0.453125q-0.78125 0.453125 -1.25 1.265625q-0.46875 0.8125 -0.46875 1.890625q0 1.0625 0.46875 1.875q0.46875 0.8125 1.25 1.265625q0.78125 0.453125 1.75 0.453125zm10.955627 1.390625q-1.0625 0 -1.96875 -0.390625q-0.90625 -0.390625 -1.578125 -1.078125q-0.65625 -0.6875 -1.03125 -1.578125q-0.375 -0.90625 -0.375 -1.9375q0 -1.046875 0.375 -1.9375q0.375 -0.90625 1.03125 -1.59375q0.671875 -0.6875 1.578125 -1.0625q0.90625 -0.390625 1.96875 -0.390625q1.0625 0 1.953125 0.390625q0.890625 0.375 1.5625 1.0625q0.6875 0.6875 1.046875 1.59375q0.359375 0.890625 0.359375 1.9375q0 1.03125 -0.359375 1.9375q-0.359375 0.890625 -1.046875 1.578125q-0.671875 0.6875 -1.5625 1.078125q-0.890625 0.390625 -1.953125 0.390625zm0 -1.390625q0.96875 0 1.75 -0.453125q0.78125 -0.453125 1.25 -1.265625q0.46875 -0.8125 0.46875 -1.875q0 -1.078125 -0.46875 -1.890625q-0.46875 -0.8125 -1.25 -1.265625q-0.78125 -0.453125 -1.75 -0.453125q-0.96875 0 -1.75 0.453125q-0.78125 0.453125 -1.25 1.265625q-0.46875 0.8125 -0.46875 1.890625q0 1.0625 0.46875 1.875q0.46875 0.8125 1.25 1.265625q0.78125 0.453125 1.75 0.453125zm6.6202087 1.171875l0 -9.546875l3.046875 0q1.515625 0 2.59375 0.609375q1.09375 0.609375 1.6875 1.6875q0.59375 1.078125 0.59375 2.484375q0 1.390625 -0.59375 2.46875q-0.59375 1.078125 -1.6875 1.6875q-1.078125 0.609375 -2.59375 0.609375l-3.046875 0zm1.46875 -1.390625l1.546875 0q1.078125 0 1.84375 -0.40625q0.78125 -0.40625 1.171875 -1.15625q0.40625 -0.765625 0.40625 -1.8125q0 -1.0625 -0.40625 -1.8125q-0.390625 -0.765625 -1.171875 -1.171875q-0.765625 -0.40625 -1.84375 -0.40625l-1.546875 0l0 6.765625z" fill-rule="nonzero"/><path fill="#ffa400" d="m475.2 57.600365l124.787415 0l0 43.2126l-124.787415 0z" fill-rule="evenodd"/><path fill="#000000" d="m517.5868 76.00666l0 -9.546875l1.734375 0l4.3125 7.015625l0.078125 0l-0.078125 -1.84375l0 -5.171875l1.453125 0l0 9.546875l-1.515625 0l-4.53125 -7.375l-0.078125 0l0.078125 1.84375l0 5.53125l-1.453125 0zm9.662842 0l0 -9.546875l5.78125 0l0 1.390625l-4.3125 0l0 6.765625l4.3125 0l0 1.390625l-5.78125 0zm0.796875 -4.078125l0 -1.390625l4.5625 0l0 1.390625l-4.5625 0zm6.826782 4.078125l0 -9.546875l5.78125 0l0 1.390625l-4.3125 0l0 6.765625l4.3125 0l0 1.390625l-5.78125 0zm0.796875 -4.078125l0 -1.390625l4.5625 0l0 1.390625l-4.5625 0zm6.826782 4.078125l0 -9.546875l3.046875 0q1.515625 0 2.59375 0.609375q1.09375 0.609375 1.6875 1.6875q0.59375 1.078125 0.59375 2.484375q0 1.390625 -0.59375 2.46875q-0.59375 1.078125 -1.6875 1.6875q-1.078125 0.609375 -2.59375 0.609375l-3.046875 0zm1.46875 -1.390625l1.546875 0q1.078125 0 1.84375 -0.40625q0.78125 -0.40625 1.171875 -1.15625q0.40625 -0.765625 0.40625 -1.8125q0 -1.0625 -0.40625 -1.8125q-0.390625 -0.765625 -1.171875 -1.171875q-0.765625 -0.40625 -1.84375 -0.40625l-1.546875 0l0 6.765625zm10.908752 1.609375q-0.765625 0 -1.46875 -0.296875q-0.6875 -0.3125 -1.21875 -0.890625q-0.515625 -0.59375 -0.765625 -1.453125l1.375 -0.5625q0.21875 0.765625 0.75 1.296875q0.53125 0.515625 1.328125 0.515625q0.453125 0 0.84375 -0.15625q0.40625 -0.171875 0.640625 -0.484375q0.234375 -0.3125 0.234375 -0.765625q0 -0.421875 -0.203125 -0.71875q-0.1875 -0.296875 -0.625 -0.546875q-0.4375 -0.25 -1.125 -0.484375l-0.59375 -0.21875q-0.390625 -0.140625 -0.796875 -0.359375q-0.390625 -0.21875 -0.734375 -0.53125q-0.34375 -0.3125 -0.546875 -0.734375q-0.1875 -0.421875 -0.1875 -0.984375q0 -0.71875 0.375 -1.296875q0.375 -0.59375 1.046875 -0.9375q0.671875 -0.359375 1.578125 -0.359375q0.90625 0 1.53125 0.328125q0.625 0.3125 0.96875 0.765625q0.359375 0.453125 0.484375 0.875l-1.3125 0.5625q-0.078125 -0.28125 -0.296875 -0.546875q-0.203125 -0.265625 -0.546875 -0.4375q-0.328125 -0.1875 -0.828125 -0.1875q-0.421875 0 -0.78125 0.15625q-0.34375 0.15625 -0.5625 0.4375q-0.203125 0.265625 -0.203125 0.625q0 0.515625 0.421875 0.84375q0.421875 0.328125 1.234375 0.59375l0.609375 0.21875q0.46875 0.15625 0.921875 0.375q0.453125 0.21875 0.828125 0.5625q0.375 0.34375 0.59375 0.828125q0.21875 0.484375 0.21875 1.15625q0 0.734375 -0.28125 1.28125q-0.28125 0.53125 -0.765625 0.875q-0.46875 0.328125 -1.046875 0.484375q-0.5625 0.171875 -1.09375 0.171875z" fill-rule="nonzero"/><path fill="#000000" d="m491.15063 92.00666l0 -9.546875l1.46875 0l0 9.546875l-1.46875 0zm3.6252441 0l0 -9.546875l1.96875 0l2.796875 7.265625l0.078125 0l2.796875 -7.265625l1.96875 0l0 9.546875l-1.4375 0l0 -5.390625l0.078125 -1.703125l-0.078125 0l-2.78125 7.09375l-1.171875 0l-2.78125 -7.09375l-0.078125 0l0.078125 1.703125l0 5.390625l-1.4375 0zm11.768707 0l0 -9.546875l3.28125 0q0.859375 0 1.5625 0.375q0.7187195 0.359375 1.1405945 1.03125q0.421875 0.65625 0.421875 1.515625q0 0.859375 -0.421875 1.53125q-0.421875 0.65625 -1.1405945 1.03125q-0.703125 0.359375 -1.5625 0.359375l-2.484375 0l0 -1.390625l2.515625 0q0.53125 0 0.890625 -0.21875q0.359375 -0.21875 0.546875 -0.5625q0.203125 -0.359375 0.203125 -0.75q0 -0.390625 -0.203125 -0.734375q-0.1875 -0.34375 -0.546875 -0.5625q-0.359375 -0.234375 -0.890625 -0.234375l-1.84375 0l0 8.15625l-1.46875 0zm7.903534 0l0 -9.546875l3.34375 0q0.875 0 1.5625 0.375q0.703125 0.375 1.109375 1.03125q0.40625 0.65625 0.40625 1.515625q0 0.578125 -0.234375 1.09375q-0.234375 0.515625 -0.671875 0.921875q-0.421875 0.40625 -1.046875 0.640625q-0.609375 0.21875 -1.390625 0.21875l-2.28125 0l0 -1.34375l2.515625 0q0.453125 0 0.8125 -0.1875q0.375 -0.203125 0.59375 -0.5625q0.234375 -0.359375 0.234375 -0.796875q0 -0.390625 -0.1875 -0.734375q-0.1875 -0.359375 -0.546875 -0.578125q-0.359375 -0.21875 -0.859375 -0.21875l-1.890625 0l0 8.171875l-1.46875 0zm2.21875 -4.359375l1.65625 -0.03125l2.984375 4.3125l0 0.078125l-1.6875 0l-2.953125 -4.359375zm10.380127 4.578125q-1.0625 0 -1.96875 -0.390625q-0.90625 -0.390625 -1.578125 -1.078125q-0.65625 -0.6875 -1.03125 -1.578125q-0.375 -0.90625 -0.375 -1.9375q0 -1.046875 0.375 -1.9375q0.375 -0.90625 1.03125 -1.59375q0.671875 -0.6875 1.578125 -1.0625q0.90625 -0.390625 1.96875 -0.390625q1.0625 0 1.953125 0.390625q0.890625 0.375 1.5625 1.0625q0.6875 0.6875 1.046875 1.59375q0.359375 0.890625 0.359375 1.9375q0 1.03125 -0.359375 1.9375q-0.359375 0.890625 -1.046875 1.578125q-0.671875 0.6875 -1.5625 1.078125q-0.890625 0.390625 -1.953125 0.390625zm0 -1.390625q0.96875 0 1.75 -0.453125q0.78125 -0.453125 1.25 -1.265625q0.46875 -0.8125 0.46875 -1.875q0 -1.078125 -0.46875 -1.890625q-0.46875 -0.8125 -1.25 -1.265625q-0.78125 -0.453125 -1.75 -0.453125q-0.96875 0 -1.75 0.453125q-0.78125 0.453125 -1.25 1.265625q-0.46875 0.8125 -0.46875 1.890625q0 1.0625 0.46875 1.875q0.46875 0.8125 1.25 1.265625q0.78125 0.453125 1.75 0.453125zm8.720215 1.171875l-3.390625 -9.546875l1.59375 0l2.15625 6.34375l0.34375 1.078125l0.078125 0l0.359375 -1.078125l2.25 -6.34375l1.59375 0l-3.46875 9.546875l-1.515625 0zm6.256531 0l0 -9.546875l5.78125 0l0 1.390625l-4.3125 0l0 6.765625l4.3125 0l0 1.390625l-5.78125 0zm0.796875 -4.078125l0 -1.390625l4.5625 0l0 1.390625l-4.5625 0zm6.826782 4.078125l0 -9.546875l1.96875 0l2.796875 7.265625l0.078125 0l2.796875 -7.265625l1.96875 0l0 9.546875l-1.4375 0l0 -5.390625l0.078125 -1.703125l-0.078125 0l-2.78125 7.09375l-1.171875 0l-2.78125 -7.09375l-0.078125 0l0.078125 1.703125l0 5.390625l-1.4375 0zm11.768738 0l0 -9.546875l5.78125 0l0 1.390625l-4.3125 0l0 6.765625l4.3125 0l0 1.390625l-5.78125 0zm0.796875 -4.078125l0 -1.390625l4.5625 0l0 1.390625l-4.5625 0zm6.826782 4.078125l0 -9.546875l1.734375 0l4.3125 7.015625l0.078125 0l-0.078125 -1.84375l0 -5.171875l1.453125 0l0 9.546875l-1.515625 0l-4.53125 -7.375l-0.078125 0l0.078125 1.84375l0 5.53125l-1.453125 0zm11.615967 0l0 -8.75l1.453125 0l0 8.75l-1.453125 0zm-2.6875 -8.15625l0 -1.390625l6.796875 0l0 1.390625l-6.796875 0z" fill-rule="nonzero"/><path fill="#ff4e42" d="m600.025 57.60126l115.212585 0l0 43.212597l-115.212585 0z" fill-rule="evenodd"/><path fill="#000000" d="m639.73035 84.00756l0 -9.546875l3.28125 0q0.859375 0 1.5625 0.375q0.71875 0.359375 1.140625 1.03125q0.421875 0.65625 0.421875 1.515625q0 0.859375 -0.421875 1.53125q-0.421875 0.65625 -1.140625 1.03125q-0.703125 0.359375 -1.5625 0.359375l-2.484375 0l0 -1.390625l2.515625 0q0.53125 0 0.890625 -0.21875q0.359375 -0.21875 0.546875 -0.5625q0.203125 -0.359375 0.203125 -0.75q0 -0.390625 -0.203125 -0.734375q-0.1875 -0.34375 -0.546875 -0.5625q-0.359375 -0.234375 -0.890625 -0.234375l-1.84375 0l0 8.15625l-1.46875 0zm12.252258 0.21875q-1.0625 0 -1.96875 -0.390625q-0.90625 -0.390625 -1.578125 -1.078125q-0.65625 -0.6875 -1.03125 -1.578125q-0.375 -0.90625 -0.375 -1.9375q0 -1.046875 0.375 -1.9375q0.375 -0.90625 1.03125 -1.59375q0.671875 -0.6875 1.578125 -1.0625q0.90625 -0.390625 1.96875 -0.390625q1.0625 0 1.953125 0.390625q0.890625 0.375 1.5625 1.0625q0.6875 0.6875 1.046875 1.59375q0.359375 0.890625 0.359375 1.9375q0 1.03125 -0.359375 1.9375q-0.359375 0.890625 -1.046875 1.578125q-0.671875 0.6875 -1.5625 1.078125q-0.890625 0.390625 -1.953125 0.390625zm0 -1.390625q0.96875 0 1.75 -0.453125q0.78125 -0.453125 1.25 -1.265625q0.46875 -0.8125 0.46875 -1.875q0 -1.078125 -0.46875 -1.890625q-0.46875 -0.8125 -1.25 -1.265625q-0.78125 -0.453125 -1.75 -0.453125q-0.96875 0 -1.75 0.453125q-0.78125 0.453125 -1.25 1.265625q-0.46875 0.8125 -0.46875 1.890625q0 1.0625 0.46875 1.875q0.46875 0.8125 1.25 1.265625q0.78125 0.453125 1.75 0.453125zm10.955627 1.390625q-1.0625 0 -1.96875 -0.390625q-0.90625 -0.390625 -1.578125 -1.078125q-0.65625 -0.6875 -1.03125 -1.578125q-0.375 -0.90625 -0.375 -1.9375q0 -1.046875 0.375 -1.9375q0.375 -0.90625 1.03125 -1.59375q0.671875 -0.6875 1.578125 -1.0625q0.90625 -0.390625 1.96875 -0.390625q1.0625 0 1.953125 0.390625q0.890625 0.375 1.5625 1.0625q0.6875 0.6875 1.046875 1.59375q0.359375 0.890625 0.359375 1.9375q0 1.03125 -0.359375 1.9375q-0.359375 0.890625 -1.046875 1.578125q-0.671875 0.6875 -1.5625 1.078125q-0.890625 0.390625 -1.953125 0.390625zm0 -1.390625q0.96875 0 1.75 -0.453125q0.78125 -0.453125 1.25 -1.265625q0.46875 -0.8125 0.46875 -1.875q0 -1.078125 -0.46875 -1.890625q-0.46875 -0.8125 -1.25 -1.265625q-0.78125 -0.453125 -1.75 -0.453125q-0.96875 0 -1.75 0.453125q-0.78125 0.453125 -1.25 1.265625q-0.46875 0.8125 -0.46875 1.890625q0 1.0625 0.46875 1.875q0.46875 0.8125 1.25 1.265625q0.78125 0.453125 1.75 0.453125zm6.6202393 1.171875l0 -9.546875l3.34375 0q0.875 0 1.5625 0.375q0.703125 0.375 1.109375 1.03125q0.40625 0.65625 0.40625 1.515625q0 0.578125 -0.234375 1.09375q-0.234375 0.515625 -0.671875 0.921875q-0.421875 0.40625 -1.046875 0.640625q-0.609375 0.21875 -1.390625 0.21875l-2.28125 0l0 -1.34375l2.515625 0q0.453125 0 0.8125 -0.1875q0.375 -0.203125 0.59375 -0.5625q0.234375 -0.359375 0.234375 -0.796875q0 -0.390625 -0.1875 -0.734375q-0.1875 -0.359375 -0.546875 -0.578125q-0.359375 -0.21875 -0.859375 -0.21875l-1.890625 0l0 8.171875l-1.46875 0zm2.21875 -4.359375l1.65625 -0.03125l2.984375 4.3125l0 0.078125l-1.6875 0l-2.953125 -4.359375z" fill-rule="nonzero"/><path fill="#000000" fill-opacity="0.0" d="m552.0 124.8l96.0 0l0 28.7874l-96.0 0z" fill-rule="evenodd"/><path fill="#434343" d="m569.85626 145.3337l0 -9.34375l-1.9375 1.390625l-0.953125 -1.4375l3.421875 -2.46875l1.34375 0l0 11.859375l-1.875 0zm8.318115 0.28125q-1.21875 0 -2.15625 -0.46875q-0.921875 -0.46875 -1.46875 -1.265625q-0.53125 -0.8125 -0.53125 -1.828125q0 -0.6875 0.25 -1.25q0.265625 -0.5625 0.703125 -0.984375q0.4375 -0.421875 0.953125 -0.6875l0 -0.09375q-0.609375 -0.390625 -1.0625 -1.046875q-0.453125 -0.65625 -0.453125 -1.453125q0 -0.953125 0.484375 -1.703125q0.5 -0.75 1.34375 -1.1875q0.84375 -0.4375 1.9375 -0.4375q1.09375 0 1.9375 0.4375q0.84375 0.4375 1.328125 1.1875q0.484375 0.75 0.484375 1.703125q0 0.53125 -0.21875 1.0q-0.203125 0.46875 -0.546875 0.859375q-0.328125 0.375 -0.734375 0.640625l0 0.09375q0.765625 0.390625 1.328125 1.140625q0.5625 0.75 0.5625 1.78125q0 1.015625 -0.546875 1.828125q-0.53125 0.796875 -1.453125 1.265625q-0.921875 0.46875 -2.140625 0.46875zm0 -1.75q0.640625 0 1.15625 -0.234375q0.515625 -0.25 0.796875 -0.6875q0.296875 -0.453125 0.296875 -1.046875q0 -0.5625 -0.3125 -1.0q-0.296875 -0.4375 -0.8125 -0.671875q-0.5 -0.25 -1.125 -0.25q-0.640625 0 -1.15625 0.25q-0.5 0.234375 -0.8125 0.671875q-0.296875 0.4375 -0.296875 1.0q0 0.59375 0.28125 1.046875q0.296875 0.4375 0.8125 0.6875q0.53125 0.234375 1.171875 0.234375zm0 -5.5625q0.53125 0 0.953125 -0.203125q0.4375 -0.21875 0.6875 -0.609375q0.265625 -0.390625 0.265625 -0.90625q0 -0.78125 -0.5625 -1.21875q-0.5625 -0.453125 -1.34375 -0.453125q-0.8125 0 -1.375 0.453125q-0.546875 0.4375 -0.546875 1.21875q0 0.515625 0.25 0.90625q0.25 0.390625 0.6875 0.609375q0.453125 0.203125 0.984375 0.203125zm10.625244 7.3125q-1.109375 0 -2.0 -0.46875q-0.890625 -0.484375 -1.53125 -1.328125q-0.640625 -0.859375 -0.984375 -1.984375q-0.34375 -1.125 -0.34375 -2.421875q0 -1.328125 0.34375 -2.453125q0.34375 -1.125 0.984375 -1.953125q0.640625 -0.84375 1.53125 -1.3125q0.890625 -0.484375 2.0 -0.484375q1.125 0 2.015625 0.484375q0.890625 0.46875 1.53125 1.3125q0.640625 0.828125 0.96875 1.953125q0.34375 1.125 0.34375 2.453125q0 1.296875 -0.34375 2.421875q-0.328125 1.125 -0.96875 1.984375q-0.640625 0.84375 -1.53125 1.328125q-0.890625 0.46875 -2.015625 0.46875zm0.015625 -1.765625q0.921875 0 1.578125 -0.59375q0.671875 -0.59375 1.03125 -1.59375q0.359375 -1.0 0.359375 -2.25q0 -1.265625 -0.359375 -2.265625q-0.359375 -1.015625 -1.03125 -1.59375q-0.65625 -0.578125 -1.578125 -0.578125q-0.9375 0 -1.59375 0.578125q-0.65625 0.578125 -1.015625 1.59375q-0.359375 1.0 -0.359375 2.265625q0 1.25 0.359375 2.25q0.359375 1.0 1.015625 1.59375q0.65625 0.59375 1.59375 0.59375zm11.403564 1.765625q-1.109375 0 -2.0 -0.46875q-0.890625 -0.484375 -1.53125 -1.328125q-0.640625 -0.859375 -0.984375 -1.984375q-0.34375 -1.125 -0.34375 -2.421875q0 -1.328125 0.34375 -2.453125q0.34375 -1.125 0.984375 -1.953125q0.640625 -0.84375 1.53125 -1.3125q0.890625 -0.484375 2.0 -0.484375q1.125 0 2.015625 0.484375q0.890625 0.46875 1.53125 1.3125q0.640625 0.828125 0.96875 1.953125q0.34375 1.125 0.34375 2.453125q0 1.296875 -0.34375 2.421875q-0.328125 1.125 -0.96875 1.984375q-0.640625 0.84375 -1.53125 1.328125q-0.890625 0.46875 -2.015625 0.46875zm0.015625 -1.765625q0.921875 0 1.578125 -0.59375q0.671875 -0.59375 1.03125 -1.59375q0.359375 -1.0 0.359375 -2.25q0 -1.265625 -0.359375 -2.265625q-0.359375 -1.015625 -1.03125 -1.59375q-0.65625 -0.578125 -1.578125 -0.578125q-0.9375 0 -1.59375 0.578125q-0.65625 0.578125 -1.015625 1.59375q-0.359375 1.0 -0.359375 2.265625q0 1.25 0.359375 2.25q0.359375 1.0 1.015625 1.59375q0.65625 0.59375 1.59375 0.59375zm10.831604 1.484375l0 -8.84375l1.765625 0l0 1.21875l0.109375 0q0.25 -0.4375 0.671875 -0.765625q0.421875 -0.328125 0.9375 -0.515625q0.53125 -0.203125 1.109375 -0.203125q0.984375 0 1.671875 0.46875q0.703125 0.46875 1.0 1.171875q0.421875 -0.6875 1.171875 -1.15625q0.75 -0.484375 1.8125 -0.484375q1.5625 0 2.328125 0.953125q0.765625 0.9375 0.765625 2.484375l0 5.671875l-1.859375 0l0 -5.359375q0 -1.0625 -0.46875 -1.546875q-0.453125 -0.5 -1.265625 -0.5q-0.640625 0 -1.125 0.359375q-0.484375 0.359375 -0.75 0.96875q-0.265625 0.609375 -0.265625 1.34375l0 4.734375l-1.859375 0l0 -5.359375q0 -1.046875 -0.46875 -1.546875q-0.46875 -0.5 -1.3125 -0.5q-0.609375 0 -1.09375 0.375q-0.46875 0.359375 -0.734375 0.96875q-0.265625 0.609375 -0.265625 1.34375l0 4.71875l-1.875 0zm18.588684 0.28125q-1.0625 0 -1.84375 -0.3125q-0.765625 -0.328125 -1.28125 -0.875q-0.5 -0.546875 -0.734375 -1.1875l1.671875 -0.734375q0.3125 0.71875 0.890625 1.09375q0.59375 0.359375 1.34375 0.359375q0.703125 0 1.203125 -0.25q0.5 -0.25 0.5 -0.8125q0 -0.375 -0.234375 -0.609375q-0.234375 -0.234375 -0.625 -0.390625q-0.390625 -0.15625 -0.890625 -0.265625l-1.0625 -0.25q-0.609375 -0.15625 -1.1875 -0.484375q-0.5625 -0.34375 -0.90625 -0.859375q-0.34375 -0.53125 -0.34375 -1.234375q0 -0.796875 0.453125 -1.375q0.46875 -0.578125 1.25 -0.890625q0.78125 -0.3125 1.671875 -0.3125q0.84375 0 1.515625 0.21875q0.6875 0.203125 1.203125 0.640625q0.515625 0.421875 0.8125 1.046875l-1.625 0.71875q-0.28125 -0.578125 -0.796875 -0.8125q-0.5 -0.234375 -1.09375 -0.234375q-0.65625 0 -1.09375 0.265625q-0.4375 0.265625 -0.4375 0.703125q0 0.453125 0.390625 0.71875q0.390625 0.25 0.953125 0.40625l1.28125 0.3125q1.328125 0.328125 1.984375 1.0q0.65625 0.65625 0.65625 1.609375q0 0.859375 -0.484375 1.484375q-0.484375 0.625 -1.3125 0.96875q-0.828125 0.34375 -1.828125 0.34375z" fill-rule="nonzero"/><path fill="#000000" fill-opacity="0.0" d="m427.2 124.8l96.0 0l0 28.7874l-96.0 0z" fill-rule="evenodd"/><path fill="#434343" d="m449.8481 145.61494q-1.21875 0 -2.15625 -0.46875q-0.921875 -0.46875 -1.46875 -1.265625q-0.53125 -0.8125 -0.53125 -1.828125q0 -0.6875 0.25 -1.25q0.265625 -0.5625 0.703125 -0.984375q0.4375 -0.421875 0.953125 -0.6875l0 -0.09375q-0.609375 -0.390625 -1.0625 -1.046875q-0.453125 -0.65625 -0.453125 -1.453125q0 -0.953125 0.484375 -1.703125q0.5 -0.75 1.34375 -1.1875q0.84375 -0.4375 1.9375 -0.4375q1.09375 0 1.9375 0.4375q0.84375 0.4375 1.328125 1.1875q0.484375 0.75 0.484375 1.703125q0 0.53125 -0.21875 1.0q-0.203125 0.46875 -0.546875 0.859375q-0.328125 0.375 -0.734375 0.640625l0 0.09375q0.765625 0.390625 1.328125 1.140625q0.5625 0.75 0.5625 1.78125q0 1.015625 -0.546875 1.828125q-0.53125 0.796875 -1.453125 1.265625q-0.921875 0.46875 -2.140625 0.46875zm0 -1.75q0.640625 0 1.15625 -0.234375q0.515625 -0.25 0.796875 -0.6875q0.296875 -0.453125 0.296875 -1.046875q0 -0.5625 -0.3125 -1.0q-0.296875 -0.4375 -0.8125 -0.671875q-0.5 -0.25 -1.125 -0.25q-0.640625 0 -1.15625 0.25q-0.5 0.234375 -0.8125 0.671875q-0.296875 0.4375 -0.296875 1.0q0 0.59375 0.28125 1.046875q0.296875 0.4375 0.8125 0.6875q0.53125 0.234375 1.171875 0.234375zm0 -5.5625q0.53125 0 0.953125 -0.203125q0.4375 -0.21875 0.6875 -0.609375q0.265625 -0.390625 0.265625 -0.90625q0 -0.78125 -0.5625 -1.21875q-0.5625 -0.453125 -1.34375 -0.453125q-0.8125 0 -1.375 0.453125q-0.546875 0.4375 -0.546875 1.21875q0 0.515625 0.25 0.90625q0.25 0.390625 0.6875 0.609375q0.453125 0.203125 0.984375 0.203125zm10.625275 7.3125q-1.109375 0 -2.0 -0.46875q-0.890625 -0.484375 -1.53125 -1.328125q-0.640625 -0.859375 -0.984375 -1.984375q-0.34375 -1.125 -0.34375 -2.421875q0 -1.328125 0.34375 -2.453125q0.34375 -1.125 0.984375 -1.953125q0.640625 -0.84375 1.53125 -1.3125q0.890625 -0.484375 2.0 -0.484375q1.125 0 2.015625 0.484375q0.890625 0.46875 1.53125 1.3125q0.640625 0.828125 0.96875 1.953125q0.34375 1.125 0.34375 2.453125q0 1.296875 -0.34375 2.421875q-0.328125 1.125 -0.96875 1.984375q-0.640625 0.84375 -1.53125 1.328125q-0.890625 0.46875 -2.015625 0.46875zm0.015625 -1.765625q0.921875 0 1.578125 -0.59375q0.671875 -0.59375 1.03125 -1.59375q0.359375 -1.0 0.359375 -2.25q0 -1.265625 -0.359375 -2.265625q-0.359375 -1.015625 -1.03125 -1.59375q-0.65625 -0.578125 -1.578125 -0.578125q-0.9375 0 -1.59375 0.578125q-0.65625 0.578125 -1.015625 1.59375q-0.359375 1.0 -0.359375 2.265625q0 1.25 0.359375 2.25q0.359375 1.0 1.015625 1.59375q0.65625 0.59375 1.59375 0.59375zm11.403564 1.765625q-1.109375 0 -2.0 -0.46875q-0.890625 -0.484375 -1.53125 -1.328125q-0.640625 -0.859375 -0.984375 -1.984375q-0.34375 -1.125 -0.34375 -2.421875q0 -1.328125 0.34375 -2.453125q0.34375 -1.125 0.984375 -1.953125q0.640625 -0.84375 1.53125 -1.3125q0.890625 -0.484375 2.0 -0.484375q1.125 0 2.015625 0.484375q0.890625 0.46875 1.53125 1.3125q0.640625 0.828125 0.96875 1.953125q0.34375 1.125 0.34375 2.453125q0 1.296875 -0.34375 2.421875q-0.328125 1.125 -0.96875 1.984375q-0.640625 0.84375 -1.53125 1.328125q-0.890625 0.46875 -2.015625 0.46875zm0.015625 -1.765625q0.921875 0 1.578125 -0.59375q0.671875 -0.59375 1.03125 -1.59375q0.359375 -1.0 0.359375 -2.25q0 -1.265625 -0.359375 -2.265625q-0.359375 -1.015625 -1.03125 -1.59375q-0.65625 -0.578125 -1.578125 -0.578125q-0.9375 0 -1.59375 0.578125q-0.65625 0.578125 -1.015625 1.59375q-0.359375 1.0 -0.359375 2.265625q0 1.25 0.359375 2.25q0.359375 1.0 1.015625 1.59375q0.65625 0.59375 1.59375 0.59375zm10.831604 1.484375l0 -8.84375l1.765625 0l0 1.21875l0.109375 0q0.25 -0.4375 0.671875 -0.765625q0.421875 -0.328125 0.9375 -0.515625q0.53125 -0.203125 1.109375 -0.203125q0.984375 0 1.671875 0.46875q0.703125 0.46875 1.0 1.171875q0.421875 -0.6875 1.171875 -1.15625q0.75 -0.484375 1.8125 -0.484375q1.5625 0 2.328125 0.953125q0.765625 0.9375 0.765625 2.484375l0 5.671875l-1.859375 0l0 -5.359375q0 -1.0625 -0.46875 -1.546875q-0.453125 -0.5 -1.265625 -0.5q-0.640625 0 -1.125 0.359375q-0.484375 0.359375 -0.75 0.96875q-0.265625 0.609375 -0.265625 1.34375l0 4.734375l-1.859375 0l0 -5.359375q0 -1.046875 -0.46875 -1.546875q-0.46875 -0.5 -1.3125 -0.5q-0.609375 0 -1.09375 0.375q-0.46875 0.359375 -0.734375 0.96875q-0.265625 0.609375 -0.265625 1.34375l0 4.71875l-1.875 0zm18.588684 0.28125q-1.0625 0 -1.84375 -0.3125q-0.765625 -0.328125 -1.28125 -0.875q-0.5 -0.546875 -0.734375 -1.1875l1.671875 -0.734375q0.3125 0.71875 0.890625 1.09375q0.59375 0.359375 1.34375 0.359375q0.703125 0 1.203125 -0.25q0.5 -0.25 0.5 -0.8125q0 -0.375 -0.234375 -0.609375q-0.234375 -0.234375 -0.625 -0.390625q-0.390625 -0.15625 -0.890625 -0.265625l-1.0625 -0.25q-0.609375 -0.15625 -1.1875 -0.484375q-0.5625 -0.34375 -0.90625 -0.859375q-0.34375 -0.53125 -0.34375 -1.234375q0 -0.796875 0.453125 -1.375q0.46875 -0.578125 1.25 -0.890625q0.78125 -0.3125 1.671875 -0.3125q0.84375 0 1.515625 0.21875q0.6875 0.203125 1.203125 0.640625q0.515625 0.421875 0.8125 1.046875l-1.625 0.71875q-0.28125 -0.578125 -0.796875 -0.8125q-0.5 -0.234375 -1.09375 -0.234375q-0.65625 0 -1.09375 0.265625q-0.4375 0.265625 -0.4375 0.703125q0 0.453125 0.390625 0.71875q0.390625 0.25 0.953125 0.40625l1.28125 0.3125q1.328125 0.328125 1.984375 1.0q0.65625 0.65625 0.65625 1.609375q0 0.859375 -0.484375 1.484375q-0.484375 0.625 -1.3125 0.96875q-0.828125 0.34375 -1.828125 0.34375z" fill-rule="nonzero"/><path fill="#000000" fill-opacity="0.0" d="m474.88504 125.7474l0 -28.7874" fill-rule="evenodd"/><path stroke="#434343" stroke-width="2.0" stroke-linejoin="round" stroke-linecap="butt" d="m474.88504 125.747406l0 -21.207397" fill-rule="evenodd"/><path fill="#434343" stroke="#434343" stroke-width="2.0" stroke-linecap="butt" d="m474.88504 97.96001c1.8170166 0 3.2900085 1.4729843 3.2900085 3.290001c0 1.8170166 -1.472992 3.2899933 -3.2900085 3.2899933c-1.8170166 0 -3.289978 -1.4729767 -3.289978 -3.2899933c0 -1.8170166 1.4729614 -3.290001 3.289978 -3.290001z" fill-rule="nonzero"/><path fill="#000000" fill-opacity="0.0" d="m28.8 129.6l268.7874 0l0 38.393692l-268.7874 0z" fill-rule="evenodd"/><path fill="#666666" d="m89.21065 155.99684l0 -13.296875l1.6875 0l0 13.296875l-1.6875 0zm-4.03125 -12.703125l0 -1.609375l9.71875 0l0 1.609375l-9.71875 0zm11.28624 12.703125l0 -10.203125l1.703125 0l0 10.203125l-1.703125 0zm0.84375 -12.078125q-0.5 0 -0.859375 -0.359375q-0.359375 -0.359375 -0.359375 -0.859375q0 -0.515625 0.359375 -0.859375q0.359375 -0.359375 0.859375 -0.359375q0.515625 0 0.859375 0.359375q0.359375 0.34375 0.359375 0.859375q0 0.5 -0.359375 0.859375q-0.34375 0.359375 -0.859375 0.359375zm3.519989 12.078125l0 -10.203125l1.609375 0l0 1.5l0.078125 0q0.28125 -0.5 0.765625 -0.90625q0.5 -0.40625 1.125 -0.65625q0.640625 -0.25 1.296875 -0.25q1.140625 0 1.953125 0.546875q0.828125 0.546875 1.1875 1.421875q0.515625 -0.859375 1.390625 -1.40625q0.890625 -0.5625 2.109375 -0.5625q1.8125 0 2.671875 1.109375q0.859375 1.09375 0.859375 2.859375l0 6.546875l-1.671875 0l0 -6.28125q0 -1.484375 -0.609375 -2.09375q-0.59375 -0.609375 -1.6875 -0.609375q-0.78125 0 -1.390625 0.453125q-0.609375 0.453125 -0.96875 1.1875q-0.34375 0.71875 -0.34375 1.578125l0 5.765625l-1.703125 0l0 -6.265625q0 -1.46875 -0.609375 -2.09375q-0.59375 -0.625 -1.671875 -0.625q-0.78125 0 -1.390625 0.46875q-0.609375 0.453125 -0.96875 1.203125q-0.34375 0.734375 -0.34375 1.59375l0 5.71875l-1.6875 0zm22.031235 0.3125q-1.484375 0 -2.640625 -0.6875q-1.140625 -0.703125 -1.796875 -1.921875q-0.640625 -1.21875 -0.640625 -2.78125q0 -1.46875 0.609375 -2.703125q0.609375 -1.234375 1.71875 -1.984375q1.109375 -0.75 2.609375 -0.75q1.53125 0 2.609375 0.671875q1.09375 0.65625 1.6875 1.84375q0.59375 1.1875 0.59375 2.703125q0 0.140625 -0.015625 0.28125q-0.015625 0.140625 -0.03125 0.234375l-8.78125 0l0 -1.40625l7.015625 0q-0.015625 -0.40625 -0.1875 -0.890625q-0.171875 -0.5 -0.546875 -0.921875q-0.359375 -0.4375 -0.9375 -0.703125q-0.5625 -0.28125 -1.40625 -0.28125q-1.0 0 -1.734375 0.515625q-0.71875 0.515625 -1.109375 1.390625q-0.390625 0.875 -0.390625 2.0q0 1.296875 0.5 2.15625q0.5 0.859375 1.28125 1.28125q0.796875 0.421875 1.65625 0.421875q1.125 0 1.84375 -0.53125q0.734375 -0.53125 1.171875 -1.3125l1.4375 0.703125q-0.59375 1.15625 -1.71875 1.921875q-1.109375 0.75 -2.796875 0.75zm13.849991 -0.3125l0 -13.296875l1.6875 0l0 13.296875l-1.6875 0zm-4.03125 -12.703125l0 -1.609375l9.71875 0l0 1.609375l-9.71875 0zm14.597488 13.015625q-1.53125 0 -2.71875 -0.71875q-1.171875 -0.71875 -1.84375 -1.9375q-0.671875 -1.234375 -0.671875 -2.75q0 -1.53125 0.671875 -2.75q0.671875 -1.234375 1.84375 -1.953125q1.1875 -0.71875 2.71875 -0.71875q1.546875 0 2.71875 0.734375q1.1875 0.71875 1.859375 1.953125q0.671875 1.234375 0.671875 2.734375q0 1.515625 -0.671875 2.75q-0.671875 1.21875 -1.859375 1.9375q-1.171875 0.71875 -2.71875 0.71875zm0 -1.53125q0.921875 0 1.734375 -0.453125q0.8125 -0.46875 1.3125 -1.328125q0.5 -0.875 0.5 -2.09375q0 -1.21875 -0.5 -2.09375q-0.5 -0.875 -1.3125 -1.328125q-0.8125 -0.46875 -1.734375 -0.46875q-0.90625 0 -1.734375 0.46875q-0.8125 0.453125 -1.3125 1.328125q-0.5 0.875 -0.5 2.09375q0 1.21875 0.5 2.09375q0.5 0.859375 1.3125 1.328125q0.828125 0.453125 1.734375 0.453125zm12.200607 1.21875l0 -14.3125l8.28125 0l0 1.609375l-6.578125 0l0 12.703125l-1.703125 0zm0.90625 -6.203125l0 -1.59375l6.734375 0l0 1.59375l-6.734375 0zm9.341873 6.203125l0 -10.203125l1.703125 0l0 10.203125l-1.703125 0zm0.84375 -12.078125q-0.5 0 -0.859375 -0.359375q-0.359375 -0.359375 -0.359375 -0.859375q0 -0.515625 0.359375 -0.859375q0.359375 -0.359375 0.859375 -0.359375q0.515625 0 0.859375 0.359375q0.359375 0.34375 0.359375 0.859375q0 0.5 -0.359375 0.859375q-0.34375 0.359375 -0.859375 0.359375zm3.519989 12.078125l0 -10.203125l1.609375 0l0 1.640625l0.078125 0q0.203125 -0.578125 0.671875 -1.0q0.46875 -0.4375 1.078125 -0.6875q0.609375 -0.25 1.21875 -0.25q0.453125 0 0.71875 0.046875q0.265625 0.046875 0.484375 0.15625l0 1.84375q-0.328125 -0.171875 -0.703125 -0.25q-0.359375 -0.078125 -0.734375 -0.078125q-0.75 0 -1.375 0.421875q-0.609375 0.421875 -0.984375 1.125q-0.375 0.6875 -0.375 1.53125l0 5.703125l-1.6875 0zm10.646881 0.3125q-1.125 0 -2.0 -0.359375q-0.875 -0.375 -1.453125 -1.0q-0.5625 -0.640625 -0.84375 -1.375l1.53125 -0.671875q0.390625 0.90625 1.140625 1.40625q0.765625 0.5 1.75 0.5q0.9375 0 1.5625 -0.375q0.640625 -0.375 0.640625 -1.125q0 -0.453125 -0.265625 -0.765625q-0.25 -0.3125 -0.75 -0.53125q-0.5 -0.21875 -1.21875 -0.390625l-1.25 -0.328125q-0.71875 -0.203125 -1.359375 -0.5625q-0.640625 -0.359375 -1.03125 -0.921875q-0.390625 -0.578125 -0.390625 -1.390625q0 -0.921875 0.53125 -1.578125q0.546875 -0.65625 1.421875 -1.0q0.890625 -0.359375 1.890625 -0.359375q0.875 0 1.640625 0.25q0.78125 0.25 1.359375 0.734375q0.578125 0.484375 0.875 1.21875l-1.46875 0.671875q-0.390625 -0.765625 -1.03125 -1.0625q-0.640625 -0.296875 -1.40625 -0.296875q-0.84375 0 -1.46875 0.375q-0.625 0.359375 -0.625 1.0q0 0.640625 0.515625 0.96875q0.515625 0.3125 1.25 0.515625l1.484375 0.375q1.5 0.390625 2.25 1.140625q0.765625 0.75 0.765625 1.828125q0 0.953125 -0.546875 1.65625q-0.53125 0.703125 -1.453125 1.078125q-0.921875 0.375 -2.046875 0.375zm5.1099854 -10.515625l5.984375 0l0 1.546875l-5.984375 0l0 -1.546875zm1.78125 7.515625l0 -10.390625l1.703125 0l0 9.984375q0 0.796875 0.328125 1.234375q0.328125 0.4375 1.078125 0.4375q0.34375 0 0.625 -0.09375q0.28125 -0.109375 0.5 -0.25l0 1.671875q-0.265625 0.109375 -0.578125 0.171875q-0.296875 0.078125 -0.8125 0.078125q-1.28125 0 -2.0625 -0.75q-0.78125 -0.75 -0.78125 -2.09375zm11.189987 2.6875l0 -14.3125l5.140625 0q1.109375 0 2.03125 0.484375q0.9375 0.484375 1.5 1.359375q0.578125 0.875 0.578125 2.015625q0 1.046875 -0.546875 1.828125q-0.53125 0.78125 -1.421875 1.1875l0 0.078125q1.0625 0.34375 1.75 1.21875q0.6875 0.875 0.6875 2.078125q0 1.203125 -0.59375 2.109375q-0.59375 0.90625 -1.578125 1.4375q-0.984375 0.515625 -2.125 0.515625l-5.421875 0zm0.90625 -6.515625l0 -1.625l4.234375 0q0.765625 0 1.296875 -0.34375q0.546875 -0.359375 0.828125 -0.875q0.296875 -0.515625 0.296875 -1.0625q0 -0.53125 -0.28125 -1.046875q-0.28125 -0.53125 -0.796875 -0.875q-0.515625 -0.359375 -1.265625 -0.359375l-3.515625 0l0 11.078125l3.828125 0q0.75 0 1.3125 -0.359375q0.5625 -0.375 0.859375 -0.9375q0.296875 -0.578125 0.296875 -1.15625q0 -0.609375 -0.3125 -1.15625q-0.296875 -0.5625 -0.875 -0.921875q-0.5625 -0.359375 -1.359375 -0.359375l-4.546875 0zm13.607498 10.3125q-0.0625 0.140625 -0.15625 0.3125q-0.078125 0.171875 -0.09375 0.203125l-1.75 0q0.109375 -0.25 0.25 -0.5625q0.140625 -0.3125 0.34375 -0.75q0.125 -0.265625 0.21875 -0.484375q0.09375 -0.21875 0.21875 -0.484375q0.140625 -0.265625 0.328125 -0.671875l1.390625 -3.046875l0.375 -0.9375l3.09375 -7.578125l1.828125 0l-5.28125 12.1875q-0.078125 0.171875 -0.25 0.5625q-0.15625 0.390625 -0.3125 0.765625q-0.15625 0.375 -0.203125 0.484375zm0.375 -4.21875l-4.328125 -9.78125l1.84375 0l3.203125 7.578125l0.15625 0l-0.875 2.203125zm6.4599915 -9.78125l5.984375 0l0 1.546875l-5.984375 0l0 -1.546875zm1.78125 7.515625l0 -10.390625l1.703125 0l0 9.984375q0 0.796875 0.328125 1.234375q0.328125 0.4375 1.078125 0.4375q0.34375 0 0.625 -0.09375q0.28125 -0.109375 0.5 -0.25l0 1.671875q-0.265625 0.109375 -0.578125 0.171875q-0.296875 0.078125 -0.8125 0.078125q-1.28125 0 -2.0625 -0.75q-0.78125 -0.75 -0.78125 -2.09375zm10.31311 3.0q-1.484375 0 -2.640625 -0.6875q-1.140625 -0.703125 -1.796875 -1.921875q-0.640625 -1.21875 -0.640625 -2.78125q0 -1.46875 0.609375 -2.703125q0.609375 -1.234375 1.71875 -1.984375q1.109375 -0.75 2.609375 -0.75q1.53125 0 2.609375 0.671875q1.09375 0.65625 1.6875 1.84375q0.59375 1.1875 0.59375 2.703125q0 0.140625 -0.015625 0.28125q-0.015625 0.140625 -0.03125 0.234375l-8.78125 0l0 -1.40625l7.015625 0q-0.015625 -0.40625 -0.1875 -0.890625q-0.171875 -0.5 -0.546875 -0.921875q-0.359375 -0.4375 -0.9375 -0.703125q-0.5625 -0.28125 -1.40625 -0.28125q-1.0 0 -1.734375 0.515625q-0.71875 0.515625 -1.109375 1.390625q-0.390625 0.875 -0.390625 2.0q0 1.296875 0.5 2.15625q0.5 0.859375 1.28125 1.28125q0.796875 0.421875 1.65625 0.421875q1.125 0 1.84375 -0.53125q0.734375 -0.53125 1.171875 -1.3125l1.4375 0.703125q-0.59375 1.15625 -1.71875 1.921875q-1.109375 0.75 -2.796875 0.75z" fill-rule="nonzero"/><path fill="#000000" fill-opacity="0.0" d="m600.0 125.62752l0 -28.566933" fill-rule="evenodd"/><path stroke="#434343" stroke-width="2.0" stroke-linejoin="round" stroke-linecap="butt" d="m600.0 125.627525l0 -20.98693" fill-rule="evenodd"/><path fill="#434343" stroke="#434343" stroke-width="2.0" stroke-linecap="butt" d="m600.0 98.06059c1.8170166 0 3.289978 1.4729843 3.289978 3.290001c0 1.8170166 -1.4729614 3.290001 -3.289978 3.290001c-1.8170166 0 -3.289978 -1.4729843 -3.289978 -3.290001c0 -1.8170166 1.4729614 -3.290001 3.289978 -3.290001z" fill-rule="nonzero"/></g></svg>